<mxfile host="app.diagrams.net" agent="Mozilla/5.0 (Macintosh; Intel Mac OS X 10_15_7) AppleWebKit/537.36 (KHTML, like Gecko) Chrome/134.0.0.0 Safari/537.36" version="26.1.1">
  <diagram name="Page-1" id="1Oh61cCZO6bqg-hqBSBR">
    <mxGraphModel dx="1272" dy="709" grid="1" gridSize="10" guides="1" tooltips="1" connect="1" arrows="1" fold="1" page="1" pageScale="1" pageWidth="827" pageHeight="1169" math="0" shadow="0">
      <root>
        <mxCell id="0" />
        <mxCell id="1" parent="0" />
        <mxCell id="g0qIa_D1leEmLkeFgXyi-30" value="" style="rounded=0;whiteSpace=wrap;html=1;" vertex="1" parent="1">
          <mxGeometry width="810" height="610" as="geometry" />
        </mxCell>
        <mxCell id="g0qIa_D1leEmLkeFgXyi-27" value="" style="rounded=1;whiteSpace=wrap;html=1;" vertex="1" parent="1">
          <mxGeometry x="122.1" y="360" width="257.9" height="120" as="geometry" />
        </mxCell>
        <mxCell id="g0qIa_D1leEmLkeFgXyi-19" value="" style="rounded=1;whiteSpace=wrap;html=1;" vertex="1" parent="1">
          <mxGeometry x="414" y="70" width="360" height="269.94" as="geometry" />
        </mxCell>
        <mxCell id="g0qIa_D1leEmLkeFgXyi-11" value="" style="rounded=1;whiteSpace=wrap;html=1;fillColor=light-dark(#ccc7c7, #ededed);" vertex="1" parent="1">
          <mxGeometry x="434" y="139.94" width="230" height="130" as="geometry" />
        </mxCell>
        <mxCell id="g0qIa_D1leEmLkeFgXyi-4" value="" style="rounded=1;whiteSpace=wrap;html=1;" vertex="1" parent="1">
          <mxGeometry x="122.1" y="70" width="118.6" height="269.94" as="geometry" />
        </mxCell>
        <mxCell id="g0qIa_D1leEmLkeFgXyi-6" style="edgeStyle=orthogonalEdgeStyle;rounded=0;orthogonalLoop=1;jettySize=auto;html=1;exitX=0.995;exitY=0.63;exitDx=0;exitDy=0;exitPerimeter=0;dashed=1;" edge="1" parent="1" source="g0qIa_D1leEmLkeFgXyi-1">
          <mxGeometry relative="1" as="geometry">
            <mxPoint x="120" y="194" as="targetPoint" />
          </mxGeometry>
        </mxCell>
        <mxCell id="g0qIa_D1leEmLkeFgXyi-1" value="Live Weather&lt;div&gt;API&lt;/div&gt;" style="aspect=fixed;sketch=0;html=1;dashed=0;whitespace=wrap;verticalLabelPosition=bottom;verticalAlign=top;fillColor=#2875E2;strokeColor=#ffffff;points=[[0.005,0.63,0],[0.1,0.2,0],[0.9,0.2,0],[0.5,0,0],[0.995,0.63,0],[0.72,0.99,0],[0.5,1,0],[0.28,0.99,0]];shape=mxgraph.kubernetes.icon2;prIcon=api" vertex="1" parent="1">
          <mxGeometry x="30" y="165" width="50" height="48" as="geometry" />
        </mxCell>
        <mxCell id="g0qIa_D1leEmLkeFgXyi-2" value="Azure Databricks" style="image;aspect=fixed;html=1;points=[];align=center;fontSize=12;image=img/lib/azure2/analytics/Azure_Databricks.svg;" vertex="1" parent="1">
          <mxGeometry x="150" y="97" width="62.8" height="68" as="geometry" />
        </mxCell>
        <mxCell id="g0qIa_D1leEmLkeFgXyi-3" value="Azure Functions" style="image;aspect=fixed;html=1;points=[];align=center;fontSize=12;image=img/lib/azure2/compute/Function_Apps.svg;" vertex="1" parent="1">
          <mxGeometry x="144.8" y="225" width="68" height="60" as="geometry" />
        </mxCell>
        <mxCell id="g0qIa_D1leEmLkeFgXyi-20" style="edgeStyle=orthogonalEdgeStyle;rounded=0;orthogonalLoop=1;jettySize=auto;html=1;entryX=0;entryY=0.5;entryDx=0;entryDy=0;dashed=1;" edge="1" parent="1" source="g0qIa_D1leEmLkeFgXyi-5" target="g0qIa_D1leEmLkeFgXyi-8">
          <mxGeometry relative="1" as="geometry" />
        </mxCell>
        <mxCell id="g0qIa_D1leEmLkeFgXyi-5" value="Event Hub" style="image;aspect=fixed;html=1;points=[];align=center;fontSize=12;image=img/lib/azure2/analytics/Event_Hubs.svg;" vertex="1" parent="1">
          <mxGeometry x="300" y="165" width="67" height="60" as="geometry" />
        </mxCell>
        <mxCell id="g0qIa_D1leEmLkeFgXyi-7" style="edgeStyle=orthogonalEdgeStyle;rounded=0;orthogonalLoop=1;jettySize=auto;html=1;entryX=-0.075;entryY=0.5;entryDx=0;entryDy=0;entryPerimeter=0;dashed=1;" edge="1" parent="1" target="g0qIa_D1leEmLkeFgXyi-5">
          <mxGeometry relative="1" as="geometry">
            <mxPoint x="244" y="195" as="sourcePoint" />
          </mxGeometry>
        </mxCell>
        <mxCell id="g0qIa_D1leEmLkeFgXyi-21" style="edgeStyle=orthogonalEdgeStyle;rounded=0;orthogonalLoop=1;jettySize=auto;html=1;exitX=1;exitY=0.5;exitDx=0;exitDy=0;entryX=0;entryY=0.5;entryDx=0;entryDy=0;dashed=1;" edge="1" parent="1" source="g0qIa_D1leEmLkeFgXyi-8" target="g0qIa_D1leEmLkeFgXyi-10">
          <mxGeometry relative="1" as="geometry" />
        </mxCell>
        <mxCell id="g0qIa_D1leEmLkeFgXyi-8" value="Event Streams" style="shape=rect;fillColor=#0F62FE;aspect=fixed;resizable=0;labelPosition=center;verticalLabelPosition=bottom;align=center;verticalAlign=top;strokeColor=none;fontSize=12;" vertex="1" parent="1">
          <mxGeometry x="464" y="171" width="48" height="48" as="geometry" />
        </mxCell>
        <mxCell id="g0qIa_D1leEmLkeFgXyi-9" value="" style="fillColor=#ffffff;strokeColor=none;dashed=0;outlineConnect=0;html=1;labelPosition=center;verticalLabelPosition=bottom;verticalAlign=top;part=1;movable=0;resizable=0;rotatable=0;shape=mxgraph.ibm_cloud.ibm-cloud--event-streams" vertex="1" parent="g0qIa_D1leEmLkeFgXyi-8">
          <mxGeometry width="24" height="24" relative="1" as="geometry">
            <mxPoint x="12" y="12" as="offset" />
          </mxGeometry>
        </mxCell>
        <mxCell id="g0qIa_D1leEmLkeFgXyi-23" style="edgeStyle=orthogonalEdgeStyle;rounded=0;orthogonalLoop=1;jettySize=auto;html=1;exitX=0.5;exitY=1;exitDx=0;exitDy=0;entryX=0;entryY=0.5;entryDx=0;entryDy=0;dashed=1;" edge="1" parent="1" source="g0qIa_D1leEmLkeFgXyi-10" target="g0qIa_D1leEmLkeFgXyi-15">
          <mxGeometry relative="1" as="geometry" />
        </mxCell>
        <mxCell id="g0qIa_D1leEmLkeFgXyi-10" value="Eventhouse&#xa;(Kusto DB)" style="shape=image;verticalLabelPosition=bottom;labelBackgroundColor=none;verticalAlign=top;aspect=fixed;imageAspect=0;image=https://debruyn.dev/2024/all-microsoft-fabric-icons-for-diagramming/kql_database.png;" vertex="1" parent="1">
          <mxGeometry x="586" y="161" width="67" height="67" as="geometry" />
        </mxCell>
        <mxCell id="g0qIa_D1leEmLkeFgXyi-13" value="Realtime intelligence" style="shape=image;html=1;verticalAlign=top;verticalLabelPosition=bottom;labelBackgroundColor=#ffffff;imageAspect=0;aspect=fixed;image=https://cdn1.iconfinder.com/data/icons/cloud-72/64/speed-real-time-cloud-information-computing-process-128.png;clipPath=inset(14.06% 2.34% 15.63% 1.56%);" vertex="1" parent="1">
          <mxGeometry x="490" y="239.63" width="62" height="45.36585365853659" as="geometry" />
        </mxCell>
        <mxCell id="g0qIa_D1leEmLkeFgXyi-14" value="Power BI" style="image;aspect=fixed;html=1;points=[];align=center;fontSize=12;image=img/lib/azure2/analytics/Power_BI_Embedded.svg;" vertex="1" parent="1">
          <mxGeometry x="694" y="94.94" width="33.75" height="45" as="geometry" />
        </mxCell>
        <mxCell id="g0qIa_D1leEmLkeFgXyi-29" style="edgeStyle=orthogonalEdgeStyle;rounded=0;orthogonalLoop=1;jettySize=auto;html=1;exitX=1;exitY=0.5;exitDx=0;exitDy=0;dashed=1;" edge="1" parent="1" source="g0qIa_D1leEmLkeFgXyi-15" target="g0qIa_D1leEmLkeFgXyi-28">
          <mxGeometry relative="1" as="geometry">
            <Array as="points">
              <mxPoint x="770" y="279" />
              <mxPoint x="770" y="346" />
              <mxPoint x="719" y="346" />
            </Array>
          </mxGeometry>
        </mxCell>
        <mxCell id="g0qIa_D1leEmLkeFgXyi-15" value="Data Activator" style="shape=image;verticalLabelPosition=bottom;labelBackgroundColor=default;verticalAlign=top;aspect=fixed;imageAspect=0;image=https://www.comset.co.uk/wp-content/uploads/2024/01/data-activator-1200x1200.png;" vertex="1" parent="1">
          <mxGeometry x="687.68" y="255.54000000000002" width="46.4" height="46.4" as="geometry" />
        </mxCell>
        <mxCell id="g0qIa_D1leEmLkeFgXyi-18" value="MS Fabric" style="shape=image;verticalLabelPosition=top;labelBackgroundColor=default;verticalAlign=bottom;aspect=fixed;imageAspect=0;image=https://ebisgroup.com/wp-content/uploads/2024/12/microsoft-fabric-1024x538.png;clipPath=inset(6.33% 25.67% 5.7% 26.33%);labelPosition=center;align=center;" vertex="1" parent="1">
          <mxGeometry x="464" y="60" width="46.49" height="44.88" as="geometry" />
        </mxCell>
        <mxCell id="g0qIa_D1leEmLkeFgXyi-22" style="edgeStyle=orthogonalEdgeStyle;rounded=0;orthogonalLoop=1;jettySize=auto;html=1;entryX=-0.03;entryY=0.401;entryDx=0;entryDy=0;entryPerimeter=0;exitX=0.5;exitY=0;exitDx=0;exitDy=0;dashed=1;" edge="1" parent="1" source="g0qIa_D1leEmLkeFgXyi-10" target="g0qIa_D1leEmLkeFgXyi-14">
          <mxGeometry relative="1" as="geometry" />
        </mxCell>
        <mxCell id="g0qIa_D1leEmLkeFgXyi-24" value="&lt;h1 style=&quot;background-image: initial; background-position: initial; background-size: initial; background-repeat: initial; background-attachment: initial; background-origin: initial; background-clip: initial; margin: 0px; padding: 0px; border: 0px; word-break: break-word; font-family: Roboto, Arial, sans-serif; font-size: 2rem; line-height: 2.8rem; overflow: hidden; max-height: 5.6rem; -webkit-line-clamp: 2; display: -webkit-box; -webkit-box-orient: vertical; text-overflow: ellipsis;&quot; class=&quot;style-scope ytd-watch-metadata&quot;&gt;Realtime Streaming&amp;nbsp;&lt;/h1&gt;&lt;h1 class=&quot;style-scope ytd-watch-metadata&quot; style=&quot;margin: 0px; padding: 0px; border: 0px; background-image: initial; background-position: initial; background-size: initial; background-repeat: initial; background-attachment: initial; background-origin: initial; background-clip: initial; word-break: break-word; font-family: Roboto, Arial, sans-serif; font-size: 2rem; line-height: 2.8rem; overflow: hidden; max-height: 5.6rem; -webkit-line-clamp: 2; display: -webkit-box; -webkit-box-orient: vertical; text-overflow: ellipsis;&quot;&gt;Azure Data Engineering Project&lt;/h1&gt;" style="text;html=1;align=center;verticalAlign=middle;whiteSpace=wrap;rounded=0;fontColor=default;labelBackgroundColor=none;" vertex="1" parent="1">
          <mxGeometry x="140" y="500" width="580" height="90" as="geometry" />
        </mxCell>
        <mxCell id="g0qIa_D1leEmLkeFgXyi-25" value="Key Vault" style="image;aspect=fixed;html=1;points=[];align=center;fontSize=12;image=img/lib/azure2/security/Key_Vaults.svg;" vertex="1" parent="1">
          <mxGeometry x="150" y="380" width="68" height="68" as="geometry" />
        </mxCell>
        <mxCell id="g0qIa_D1leEmLkeFgXyi-28" value="Send email alert" style="html=1;verticalLabelPosition=bottom;align=center;labelBackgroundColor=#ffffff;verticalAlign=top;strokeWidth=2;strokeColor=#0080F0;shadow=0;dashed=0;shape=mxgraph.ios7.icons.mail;" vertex="1" parent="1">
          <mxGeometry x="704.0799999999999" y="390" width="30" height="16.5" as="geometry" />
        </mxCell>
        <mxCell id="g0qIa_D1leEmLkeFgXyi-33" value="Cost Management" style="shape=image;verticalLabelPosition=bottom;labelBackgroundColor=default;verticalAlign=top;aspect=fixed;imageAspect=0;image=data:image/png,iVBORw0KGgoAAAANSUhEUgAAAlgAAAE7CAYAAAAB7v+1AAAAAXNSR0IArs4c6QAAAARnQU1BAACxjwv8YQUAAAAJcEhZcwAADsMAAA7DAcdvqGQAACd+SURBVHhe7Z1bcBVluve9m8u5nJupz6ohK1krWZFLqj634yVVn/pxZ+ZiJHI+G3JAtsx8ZjN7RnTPmJm9UQgKiYBAgBDCIecQThJEYQGKAYlGorIEHRln76rc9tdP86KQPEAOa3W/3f37Vf0qpSSr39VJ//vpt9/19CMAECw1XanpNb2l5at6Smtf7C19xbXvR3tKs+5XB3GMPelb7tef/laOlG7w/oa6SytW95Q8af68AAAA4sGq3vSsVUfSdebEqJ88EXOg+7fWL4WXFPAVRx/7ufkTBAAAiAZSVL14JN1gZh3UkyFi3u0pbXmxt6Ts5b5f/sz8aQIAAISLmqOpX3gzVRRVaJmrekpHpOBffXT6o+bPFQAAwG7uFFbeSUw5uSFaJYUWAADYjKxxobDC0OoWWnJxYP6cAQAAgqem57GZfOIPQ29P+pYsiDd/1gAAAMEgs1be4nXtZIUYWtPtzGYBAEAgSP8qZq0wsnofzigpM3/uAAAA+cfrZcVaK4yBNT3p1ebPHgAAIH+s6k4vcosr+ag7Yiys6SndYP78AQAAcs+qHu9TgupJCDHSdqfbaVAKAAA5h+IKYy9FFgAA5JKa7tIK9YSDGDvTDeawAAAAmDyrOr0F7cqJBjG21prDAwAAYOK82F06o6a7dEQ5wSDG2pouGpICAMAk8B59012a1U4uiHFXLjyqOtNF5nABAAAYH7LWRDuxIOJta3rS/eZwAQAAeDjybEHthIKIY2Q9FgAAPBxuDSKOX7lVKI+NMocPAACAjnvS2Dn6JIKIDzRjDh8AAICxyJW4cvJAxIfZnV5kDiMAAIB7cU8UmTEnDkR8uN2lWbm9bg4lAACA21R3lZSpJw5EHKfpOnM4AQAAPPKIPF+Nhe2IU5PeWAAAcA9ucfWKdsJAxIlZ01PaYg4rAACIMzVHU7/gcTiIuVP6yJnDCwAA4opccWsnCUSctBm57W4OMQAAiBvVPSVPKicHRJyiNd2lFeYwAwCAuOGeCGjLgJgPu0uzcvvdHGoAABAXpDGiexKQEwEi5kPaNgAAxIsf2zJoJwVEzJk8pxAAIEbIlbV2MkDEXJtuN4cdAABEGWmEWNNVOqKfDBAx53amZ5nDDwAAokpNd2mLehJAa2344A+eXZebnCOf7vO+3vl/v+t9Uv0ZtMea7vQQbRsAACJMTedjM7UTANrnngtvOOeGTzjZH4ad7/7nxn29+c/r3vfJ92uvg3ZY00nbBgCASGIWtmdGBz/apRRKw98PqsXUw5Sfo9CyU7ktX3OYtg0AAJFDrqC14Ec7/MuJec7gzUtq4TRR5XXk9bTtYHC6RdYGczgCAEAUkCtnN+Bpy2Cpb73/u4feCpyo8nqyRkvbHgYnbRsAACIEbRnsdVemzltHpRVJuZBbhnZZ05XuN4clAACEGbli1oIeg/fN/pq8FleivL7MkGnbx4CkbQMAQPiRRodqyGOgvnLsN5NezD5RZTuyPW0cGIhZ2jYAAIQYuVJWwh0tsH+oSy2G8qVsTxsHBmRXaa05TAEAIEyYtgwDY4IdA1duDWpFUL6V7WrjQf+lbQMAQEihLYO9XviqXy2A8q1sVxsPBuZOc7gCAEAYkCtjnjdop2v7/m/eF7bfT9mubF8bFwbji92lM8xhCwAAtiMNDbUwx+CVtgla8eOXtG2wzow5bAEAwGZoy2C38txArfDxS9m+Ni4MTveCqNwcvgAAYCvSyFALcbTDXD0OZ7LK9rVxYaDStgEAwGaqOtOzarrTDtrr17eG1MLHL2X72rgwWFd1l7xiDmMAALAJuQKu7k5ntfBGe9SKHr/VxoXBWt2VHlndMf1RczgDAIAtVHeV1GrBjXapFTx+q40LbbCkxRzOAABgA9KWQa6A9dBGm+QWIT7I6p6SJ81hDQAAQeMG887RQY12euXGRbXw8UvZvjYutMPq7jRtGwAAbEDaMmhBjXZ6NuA2DR9c61PHhRbZWVJhDm8AAAgKueJVQxqtdM+F9Wrh45eyfW1caI/yYZWKo4/93BziAADgN9KgUAtotNc1vb8O9FE5sn1tXGiX1T3pOnOYAwCAn9CWIbwGdZtQtquNB+1TPrRS1ZkuMoc7AAD4hTQm1IIZ7fdv7y3zfRZLtvfnE/PU8aCt0rYBAMBXpCEhbRnC7cnP2tRCKF/K9rRxoN3K0xnMYQ8AAPlGrmy1MMbw+Kdjv3GGvx9Ui6FcK9uR7WnjQLuVD7HwnEIAAB+QRoRaEGP4lFuF2R+G1aIoV8rry3a07WNIpG0DAED+oS1DtGz44A95W48lryuvr20XQ2RXyS15WoOJAAAAyDVucbVIDWAMtW/2V+f8dqG8nryutj0Mn7RtAADIE9J4kLYM0fXf+p5xBrLn1GJpon58/Yz3etp2MMR2paabOAAAgFwhV7Bq6GKklFt6gzcvqYXTw5TnDHJLMNL2mTgAAIBcIA0HacsQL6VQ6h/qcr6+NaQWU3eUf5fvo7CKh7RtAADIIbRliLeb3l/jFVDbzr7q9H7a7H2V/2aNVSwdom0DAEAOkCtWJWQRMa7StgEAYGp4zxvsTGdqutxQRUR0dTNhhLYNAABTQK5UtYBFxHi7qjvdYGICAAAmglyhugXWLS1cERFp2wAAMAmqu9J1eqgiIool/SYuAABgPMiVqR6oiIg/Wd1VUmZiAwAAHkZ1V7pdC1NExLt1syJL2wYAgHHgtWVQghQRUbO6q6TWxAcAAGjIlagbmEOjAxQR8X7StgEA4CHQlgERJ2dJi4kRAAC4G7kC9a5E1fBERHywle2lM0ycAADAHaRxoBaaiIjjUZ76YOIEAAAE2jKgPLz5blsubnJ6rzTf40D2nGr2h2Hnu/+54Qz/ffDH/3fnZ+R15PX+9t4ydbsYMTtKy02sAACANAxUwxIj559PzHO2ffiqV/xc+KrfGfruilcc+eHXt4acs8MnvKJLxqGND8MtbRsAAAzSKFALSgy/a3p+7ew5v945+VmbN6t085/X1cInKKW46x/q8sYoY9XeA4ZPeQqEiRcAgHgiV5pyxamFJIbTPx39jTdDJLNTWlFjq3Kb8ejVA8xsRUD5sMzqjumPmpgBAIgf0iBQC0gMl1KUtH2y3Zul0oqXsCm3EeU2pvZeMSzStgEAYgptGcLvzkydc+XGRbVIiYJyC/Hgxw3qe8cQ2Fk808QNAEB8qOlM71RDEa1XCqvBm5fUoiSKSqEln0TU9gXaK20bACB2SENALRDRbqXIiMptwMkotw5ljZm2b9BSO0sqTOwAAEQfubJUwxCt9M3+6lgXVncri+G7Ljep+wntUz5EU3H0sZ+b6AEAiC5VHaXlboEl0/douX/s+41z4ctwfRrQL+W2Yf3pNep+Q8ukbQMARB1py1DVmc6qIYhWufXDV73GnFpxgbeVvl7SQ0vbf2iPVR3yYZrUdBNDAADRQ64ktQBEe3yp+9dePyitoEBd2V/avkSLpG0DAESVio7pj8qVpBp+aIW1vc+w1mqSyq1UKU61/Yp2WNWZnmXiCAAgOsgVpBZ6aIey3ipOrRfyoey//zg+T92/aIEdJQM8pxAAIoUbbE+qgYdW+NeTy5zhvw+qRQNOTFm39sapanU/Y/BW0rYBAKJEVWc6o4UdBq/MuFBc5VbZn8xk2WrJLXmKhIkmAIDwIleMetBh0MqaK24L5kdp4yD7V9vvGKxVnSUbTDwBAIQTafBHWwY7lQXZH319Ri0OMDde+eYiC98tlbYNABBqaMtgryc/a1OLAsytUsRq+x+D1b3w6zMxBQAQLuQKkbYMdiodyLViAPPjmS/61N8DBittGwAglNCWwU7llpWsD9IKAZuUflwPM0yd5g981KD+PjBQh2jbAAChQq4MlTBDC7S1S7vcStt3YdOkWhzIjJw82kdue9r6iUh5rA6fLLTPqvb0ahNbAAB2I1eE0tBPCzMMVmkmKid6rQAIwuw/hp3+z7tyXnhIX6/eK83WzXDJrJs2XgxO7zmFtG0AgDBQ2V5SUd3hhhda58nBNue7/3ZP9hYo65Kk4NPGmUtlVsxrRaGMIQhlPNo4MUDb0w0mvgAA7ESuBKs7Sm6pIYaB+uPslXLS91OZVdr6wavqGPPpnsz62zNaypj8VGbt/CgscWK62UXbBgCwFzeo6kYHF9qhDbNXMpNU2/OMOj4/lG3LzJk2Nj/1Wjco48PgrOpIZ0yMAQDYhVwBasGFdhj07E3QxdXd7jxb580kaeP0Q/ldvPFetTo2DND2kjITZwAA9lDVnu5TQwsDd8v7f1BP9H5pU3F1x7+eWOYMfXtFHW8+lE83yiyi/C608WDwVnWks7RtAACrqGpLzarqKHEDCm1UPqmnnfT98PaaozJ1XEH7slv0eY8LUsadC6WAO/rpAWf9e9Xq9tE+qztKXjGxBgAQLHLFV9VeMqSFFdrhNekNpRQAfrjjbJ06Jlv8164ncvopQ3mtzoEmb4ZM2x7abWV7CW0bAMAOVrYXr9aCCu1QZk+0QsAPZUG5NibblJmsqdwu/CR7zjl8abvz2rG56utjuKzsKGkx8QYAEAxypSdXfFpIoR3KI1q0oiDfSksIW28Nakpx9NUEPghw/st+Z9+F+lC9Rxy/le3JGSbmAAD8xy2uGrRwQns8EVB7Bln3pY3HZndn1qvvRZSC8ey14973yIyX9vMYKWnbAADBUHE4Nb2q3Q0itNor31xUC4Z8u/5ktToe2z0z9FOfLFmgL/8t68j+tfMJ9fsxuq5sSy0ycQcA4B9uAGVGBxLaZxD9nj65fk4dSxiU2SmZ9dt6Zp367xgfK9tLaNsAAP7iBk+ZFkhol68dnasWQPm293KzOh7E0NlWXGdiDwAgv8gVnVzZqWGEVim36bQCKN96rRmU8SCGzcq2kpGqg+kiE38AAPnDDZxaLYjQPre8v1YtgPKttwhcGQ9iGHUvKGnbAAD5xWvLIFd0SgihfcpMklYA5VNpaqqNBTHMVh4unmliEAAg98iVnBY+aKf7zterRVC+1caCGHJp2wAA+UEa7ymhgxYbVIEli+u18SCGWfcCs8LEIQBA7qhqK8m4Ohgegyqw6k+tUceDGGYr20qyPKcQAHKKNNzTAgftNqgCq3egWR0PYvilbQMA5AivLYN75aaHDdpsUAWWt9BdGQ9i2K08XDIiT7Ew8QgAMHnkik0LGrTfLaeDadMgcpsQI2y7iUcAgMlR0VH4qFyxKQGDITDIAuujr86oY0KMhqlZJiYBACaOW1y16OGCYTDIAkvcfW69Oi7EsFvZVjzAcwoBYFJIYz0tWDA8/vXYMrXw8cuvvh9yXu5+Rh0bYtitPETbBgCYBG54ZCoPe4s6MaSubn9CLXz8VG4Vyji08SGG2ZWHSkZo2wAAE6LCvTLTAgXDp8wiaYWPn54f7lfHhhgBN5jYBAB4MHJF5l6ZZZUgwRB6JXtRLXr89sxQnzo+xLBL2wYAGBdVh4vrtBDBcHr2i+NqwROEn1w/5/x7T5k6TsTwWtxn4hMAQEeuxGRdgR4iGEaPXjmgFjtBKbcsN763Rh0rYlitOEjbBgB4AG5x1a6FB4bX5kww3dwfphR+L3c9o44ZMWzKsgraNgCAilyBacGB4fa1I3PVAscGZTbrwIUGddyIYXPlweLVJk4BAG4jV14rDxUPVB5ygwIj57XvBtUCxxYHb1xyms/VO6vbnlDHjxgGVx6kbQMAjKLiQEmFFhgYDc983qcWNraZ/cewc2qwy6k7ukx9H4i2u/Jg8U4TqwAQd+SKq/JQ8S0tLDAaHv5ou1rQ2KzMavUMNDvrj1er7wnRVmnbAAAeXlsGJSQwOsqMkFbEhEVZqyUzWzs+qHNe7nxGfY+IFtli4hUA4orXVPRgyYgSEBgxbWk4mgtlduvo5QPOO6fXqe8VMWiZxQKIOcxexUf5tJ5WrETBT74+53ReanI2nlyjvnfEAGQWCyCuMHsVL+XW2s0frqsFSpSU9yjPPpR1ZyyWxyBlFgsgprgBUDs6EDDa2vTYHL+U9VvyvqUNxGu9c9X9gpgP+UQhQExZeaB4YOVBr3cLxsSNJ9aoRUicHLp5xVswv/nUWnUfIebMAyUjdHcHiBlVB9NFaiBg5D1/rV8tPOKozG6d+LTN+a9j1eq+Qpyqla0lZSZ2ASAOVBwoqdXCAKOvFBNasRF3pdu9FFuv9y1T9xvi5OQ2IUCs4PZgvGUW68HKbcSeT5optnDqcpsQID5U7C98VA0CjI0yixWHTxTmQim2Dl/c7rzaO1fdl4gPUx6kb+IXAKJMZWuybOXBYvfAxzgrRYNWUOD9Hfzmkrff/tBVpu5TRM3KQ6lXTPwCQJSRg10LAYyf0qBTKyTw4cq+a/pwvbpfEe811W7iFwCijBzseghg3JSZGPkknVZA4Pj86MszZq2Wvo8R3cy9ZeIXAKKMHOx6CGAclef5sR5rasr+67vc6rx4+Al1HyPKkzNMBANAFLn9eBw9ADC+SpGlFQ44MaXVg+xLbR9jvGWhO0DEqdifml5xwD3YEUfZfLZeLRpw4nZ83KTuY4yx+4vLTQwDQBSp2F/ypHrwI7pSZOXOD4eOO6sOPaHuZ4yfL7SmFpkYBoAosuJA8Uzt4Ee8Y2P/Oid7a1gtGnBiXslecNZ2lqn7GeNmqtbEMABEEZmm1g9+xJ/8r6PV3noirWjAiSn7Ufantp8xTtILCyDSUGDheJWZl/c/61OLBpyY0gpjXc9cdT9jPHzhYKrBxDAARBEKLJyoG06sca5+c0ktHHD8ykzW79ufVvcxxsINJoYBIIq80JosUw58xId66OJ21mZNUSlUKbLiKmuwACINnyLEqchtw6krnd/5dGH8fKG1eLWJYQCIIl6B1eoe8IhTcMNxbhtOxVNXu9T9ihGWPlgA0aZif+Gj6sGPOAkbT63zZrR41M7EffvkWnWfYkSlwAKINrP7fvkz9eBHnIK/b3vaac00OJ/fvKIWEzhW2VerDj6h7k+MoPtT000MA0BUeaE1lVEDADEHyu1DZrXGZ99Aq7oPMXrKxa2JYACIKm6B1aAFAGIuldkZefSOLOqm2Lq/UpBq+w+jo1zUmvgFgChTsT9ZoYUAYj6V9VoyY8Pi+HuV/aHtL4yOclFr4hcAoox8kvCF/e5BjxiQa9vLnL0f1nu3Er/6+5Dz3T/dYiPGbj/9urqfMBqucC9qTfwCQJSZ3fjLn7kH/cjoEEAMyv/sq3YOnd/ufPj5cefat4NqERJlz1/rV/cLRsPlzekiE78AEHVW7C/eqQUBog3KDJfcUuy+1Ox88tW52x3klcIkSkqRqe0LDLupARO7ABAHXtiXLNPDANFO/9K7zNl1Zr1z/Eqbc/n6BbVICbPMYkXTFft5RA5ArOA2IUZBadYps1wXh8+oRUvYlCJSe58YXrk9CBBDuE2IUbLmwBPebUWZ4QrrwnkpFrX3hmGV24MAsWT5/tQsPRQQw6/cTpRF81ohY6ty61N7LxhO+fQgQIxZsS+VeaHFDQPEiCoL5o9fbnNuSLNTpaixTRmv9j4wbKayshTDRC0AxI3lzalZejggRsuwFFrSH0wbP4bLFfuYvQKIPcxiYZyUQuv9wT61uLHB81/0q+PGMMnsFQC4MIuFcVRmimzsryUzbNp4MTwyewUAP+JecbVrQYEYZdd1zrWyp9Zfepap48UwyOwVANxFxf7UdD0sEKNtTesT1vXRanxvnTpWDIH7kmUmVgEAbuOGQ92YsECMgVJkySN5tGInCOW5jNo40Xr7TZwCAPzE0j2pX8j0thIaiJH3d4eedq5mL6kFj9/Kpx21MaLdyp0AE6cAAPciizNf2OeGBWIMXdtWZkUXeLllqY0PbTbVYGIUAGAssjjTa9ugBghi9D2U2a4WPX76+Y0r6tjQWkfkDoCJUQAAnRX7imcqAYIYC2U9VtCzWNe+HVTHhnZKWwYAGDduaLSMDhHEuBj0LBYFVnhc0Vw8RFsGABg3y5vTRW54jIwOE8Q4KLNYQT5ShwIrPEqjZhObAADjww2OuhX7Ug5iHA2ybYMUWNqY0C6XNyfbTVwCAIyf2wvek1ktWBCjbvfHzWrx44cUWOFw6R7aMgDAJFm2N7VICxbEqLv3g3q1+PFDCiz7lRl+E5MAAJNjxb5kRgsYxCjbcHKdWvz4obRp0MaEtpjM0pYBAKaMGyYz9JBBjK7b+19Xix8/lPVf2pjQFmnLAAA5YsXeZMuKZjdYMPa+0jHX2X7qdW+GR/v3qHjkUqta/PjhxWtn1DGhDSYztGUAgJwh0+FuuIyMDRuMsn/rrXZ2nV7vFRuffHnOufGPn1oXSDPO6v3/ov5cFMx80X9P0eOn7w/2qWNCC9xdPNPEIgBAblixN1WrBg5Gwjf71jh7z9Q7xwfavGJKO/GPVgov7bXCrhSO178fVt+zH8rvQBsXBuzeZIuJQwCA3OG1bWhOZtXgwVD51vG1Xrfy9650OZe/vqCe5MejzGjJLUNtG2FWCk3t/fqlbF8bFwbqyPLmRJGJQwCA3LJsT7JMCR60VJmJkWKq40KTd9vpavaSekKfilFcLzSVojMXyq1ZbVwYnLRlAIC8s3xvql8LIAzWNQee9oqp7o+avfVD8lF/7eSdD2U2TBtTGJXiRnuPfhrltW3hNJllYTsA5B3pXqyHEAal3OrTTtR+KbcKZQ2XNrawmY9Zvoko29fGhcEpDZdN/AEA5JcV+1INWhBhMMrMlXay9lP5VOG/HS5TxxcW959tUN+bn0qxrI0NgzKZMbEHAJB/pG3D8r2pEVcH7TDomRdRxvBS69Pq+Gz3T+1zvSJRe19++taxter4MBhXNCVnmNgDAPCHZXuSFVogYTBuOxVc5/G7DWORJeO1oUCVAk8bHwbjMtoyAEAQyKJPN4SGRocSBqcNRYIoDyuWGSFtjLZZ1fIvzqVx9v3Kt3J7UBsjBuIIzxsEgMBY3pSapQQTBqQts1iiFFlvHFmjjtMWZeZK2kxo4w/Cv/VUq+NE/122N1VrYg4AIBiW7022awGFwWjDOqK7lW7vMkukjTVIpfiTIlAbcxBKoaeNE4OQtgwAYAHStkEPKQzCg+e2qyfwIJWeXDbNZrVfaFLHGaQy+6iNFf1XGiqbeAMACBY3lOpGhxQGo8wW2TaLdcf3r/Y5f+5cqo7bD/ecqbdq1uqOsnZOGy/677K9qX4TawAAwSOLQZftLsq6V35y9YcBu+lo8H2xHmRm6JTz1+4qdey5tmrf487Bc9ucazftK6zuuO2919Wxo//KjLyJNQAAO1jWlKzQAguD8fhAm3oyt0mZuTnycWvOiy15PSmqZF2TdJnXtm2LH3x2XH0PGIC7kw0mzgAA7EEWhboBlVGDC31XZm5sadswHr/6bsg5ffWI03Wx2dnZv96bhXup9Sn1fcm/3bH9fJP3M6LMjF3/flh9fRuVsb588Nkx7xEDkbYMAGAvS3cnZirBhQH5H51LrZ/BibMtHzaovzcMwKZkhYkxAAA7ccOqZUx4YWDKrTLt5I7BKrNt2u8LA3GItgwAYD3LmxNFbmCNjAowDFBbOpXjbeXWrdzq1H5X6L9LmlKzTHwBANjN0t2puqW7kw7a4csHnvXWOGkne/RXWXf1x8Nz1N8T+u+SpmS7iS0AAPuR6fYlTUVZLdAwGLccX8d6rICV/b+pb636+8GApC0DAISNJbuLFqmBhoFJkRWcst9l/2u/FwzKVJ2JKwCAcLGkKZnRgw2DkiLLfymu7NObYactAwCElcVNyRlauGGwUmT5J8WVnbrZRFsGAAg3bpi1jA43DF6KrPwrC9rX976k7n8MTplZpy0DAIQemYZf2pQccXXQLrcco8jKl1evX3L+eGiOut8xYHcmZpp4AgAIN0t2FdWqQYeBK0VWmB4vEwY/GDzuVO59XN3fGLC7ky0mlgAAwo/XtmFXUVYNPAzcl1ufdS4N04x0qkqvsT2n69V9jFY4snxHosjEEgBANFjclCxb4oYc2mtbpolbhpP09KdHnNUtT6n7FS2RtgwAEFWW7CrqV4MPrXF9z0vO599cVosIHOsXNwedzcfWqfsS7XHxrqIsC9sBILIsfTc1fckuN/DQalfuedybkfnuB7eIQFW5HXjgw23q/kML3Vm0yMQQAEA0WbIz2aAGIFrn1hOv336GoVJgxFX5QEDXhWavCNX2Gdrn4l3JjIkfAIDoIm0b3NAbGR2CaKdSSMhMTdwLrctfXXB2n653Vu97St1PaK/S8NjEDwBAtFm8M1mhBSHaaxwLLXmvvR+1Oq+1LVX3Cdrv4l20ZQCAGOG1bdiZHNICEe02DoWW9LGS26Pa+8dQOcLzBgEgdizZkZrlFlkOhtOVu28XWtKxXCtSwqbcAmw50+D8v/3Pqu8XQ+iOoloTNwAA8WLxjmS7GowYKv/94ByvOMl8fkotXmxUCiq5/bf56DqvWNTeF4bXxTtoywAAMUbaNiyWMMTIWOEWK3J77eRAl/OlBbcRpXGqdKk/dqnNm3Gr713rjVEbO0bIHckyEzMAAPFkyY5UnRqQGAnrOqqcfWcavNkiKXRyUXTJ7JO81t1+cPW41z5BlCJK/P3+Z9UxYbRdtLOo38QLAEB8kUWoi3YUZbWgxOj6YvNTPxZCD1P7ecT7KTPjJl4AAOLN4u3JisU73HBERJyaDSZWAABAFqO6wZgZFZSIiBNxZGkjbRkAAO5h4bbETCUwERHH5/ZkhYkTAAC4m8XvJlvU4EREfJDvJodoywAAcB8W7kgUuWE5MiY8EREfoDQuNjECAAAaS95N1blXo3JFiog4HttNfAAAwP2Qaf6F7xZlF7nBiYj4MOfTlgEAYHy4BdYiLUgREe81VWdiAwAAxsOi7cmMHqiIiElHZrppywAAMEEWb0/O0EIVEVFcSFsGAIDJsWh7ssXVQUS8x23JDG0ZAAAmiUz/u2E6MiZcETHWSmNiExMAADAZFmwvql24vchBRBTdTGgx8QAAAJNFbgMs2F6Y1YIWEWPnyMLGRJGJBwAAmAoLtiXKlKDFiPv2kXXOyU+6nIEvLzjf/nBjjJ9+fcnpv3zEeefY6+rPY/Rc8G4RbRkAAHLJwm2F/Qu3uSGLkXZV01NOZ6bZuf73YbWoup/y/fJz8vPa62L4XbCtMMvCdgCAHDO/sWC6FroYHVvPbJtwYTVa+Xl5He31MdzO31q0yMQBAADkkoVbCxu04MVwu2LH4865wVNqwTRZ5fWYzYqUGRMDAACQa6Rtgxu0I6OCF0OsFEGylkorkqaqvO7aljnqdjFczm9MzjAxAAAA+WD+1sKKBW7gYvhdvuPx+y5gz5VSZMl2tO1jOJy/lbYMAAB5Rxa5ukXW0IKtbvhiqM31bcH7KdvRto+hcKSc5w0CAPjDwsbCWUoQY4hsfX+bWgzlS9meNg603lpz2AMAgB+4wds+KogxJC5/93Hny2+H1EIoX8r2ZLvaeNBWacsAAOA70rZBD2W0Xb9nr+7ILFbIbEyUmcMdAAD8ZMG2ojo1mNFq/Z69uqNsVxsP2mhhvznMAQDAb2Tx64J3CrML3nEDGUPhhs61avHjl7J9bVxolzJDbQ5zAAAIgvmNhRVaQKOd9pxvVQsfv5Tta+NCmyxsMIc3AAAEhSyCnfdOUWa+G8xovwPD+e179TBl+9q40BppywAAYAvzGhMzlaBGC/3im0G18PFL2b42LrTExsIKc1gDAIANuOHcMias0Tq1osdvtXGhDRYO0ZYBAMAyFjYmityQHhkb2miTWsHjt9q4MHjnNhbOMoczAADYxLx3iuq04EZ7vHHrulr0+KVsXxsXBm67OYwBAMA2vOcUNiSy8xsLZS0HWqi3BusfbrETkN4aLGVcGLS0ZQAAsBo3qBfpAY42+PEX59TCxy9l+9q4MDjnNSTqzOELAAA2M6+hMKMFOQZvx9lmtfDxS9m+Ni4MyIZElrYMAAAhYX7jtBlqmGPg/vlglVr4+KVsXxsXBiZtGQAAwoR7ZdyihDlaYFDrsFh/ZZcy00xbBgCAkCG3HdwAH5knQY5Wuf/0NrUAyreyXW08GJSJmeZwBQCAMDFvS6LWLbLkShktcunW/+37LJZsT7arjQeDMNFiDlMAAAgb3nMKtySyesBjkDYeeV0thPKlbE8bBwbglsKR8sZEkTlMAQAgjMzdnChTQx4D9+jFNrUYyrWyHW37GJS0ZQAAiARztxT260GPQXvhszNqUZQrpe8VtwYtcksiy8J2AICIIF2i1bDHwK3a8X+cs1dPqcXRVJXiSl5f2y4G49zNBYvMYQkAAFHADfeG0WGP9pjr24XcFrTPuVsKM+ZwBACAqOC1bdhcODJvixv2aKWNva87n12/rBZM41V+Xl5He30M1vlvTZthDkcAAIgSc7YUVrhX0XIljRa763j9hAst+X75Oe31MHjnbKEtAwBAZJHFtXM3J4a0EwDa5x/3LXH292/z1lKJN76/7hVT8vXO/5NnC8r3aT+PlrhZ2jLwvEEAgEjjhv0s9SSAiHlxzpZErTn8AAAgyriB366dCBAxx26mLQMAQGwof6tg+tzNEv6ImF8TZeawAwCAOOAGf51+QkDEHNlvDjcAAIgLsuh27tuJrHJSQMQcKDPF5nADAIA44Z4AKuZsTjiImGO3FDSYwwwAAOKGLL6ds7kgo54gEHFyvp0YKW/8X7RlAACIM+Vv/2qme0KQkwIi5kCZGTaHFwAAxJk5bxe0aCcKRJyoBUO0ZQAAAI/yTYmiOW8lRvQTBiKO1/JNhbPMYQUAAPDII3PfTtRpJwxEHKdvJdrN4QQAAHAbua3x/FuJ7PPuiQIRJy5tGQAAQMU9QSxyiywHESfo24k6cxgBAACM5flNBRn1BIKI9zNb/gZtGQAA4AHIbY7nNyVGlJMIIiqWv5UoN4cPAADA/SnflKjVTiSIOEYWtgMAwPjwFrxzqxDxYXJrEAAAJoZ3q7A+MfL8JvdEgohjLN+UKDOHCwAAwPgp31SwWjuxIGJigzlMAAAAJs5s90TiXqnL1ToiurrHRDuPwwEAgCkjJxTtRIMYN2fXF2RmNz76c3NoAAAATB65WpcTi3bCQYyLszcVDJVvLHzUHBYAAABTRz4t5RVZ9e7JBjFmzq5PZHkUDgAA5AW5NTJ7Y6JdOwEhRtXZGwsGmLkCAIC8M7u+oKG8vsA9+SBGW/dvvY81VwAA4BvlGwpWayckxKjoFlc7+bQgAAD4TvmGaTNmb5w2oJ2cEMOqW1jdKt/I8wUBACBAvE8Ybpz2SvlG9+SEGHJnbyxo5/E3AABgDd5s1oZpA9pJC9F23cIqy6wVAABYy2/dk9RzGwqG3BOWnLQQrfY5t7By/14rWGsFAAChgEILbZbCCgAAQk35xmlPzt44bYOc0LQTHaJfugXViPt15283/KqMwgoAACLDb9+cNmv2hoKG594sGHK/Ooj51i2qsrPfpKgCAICYICc7md167o2C1XICdE+Gfc+9Oa1/9AkScTw+t2HagPu1z7XF/Tuq/e0bv5rJpwEBguKRR/4/xlnB9/XF+ysAAAAASUVORK5CYII=;clipPath=inset(0% 19.33% 0% 19.33%);" vertex="1" parent="1">
          <mxGeometry x="260" y="379" width="81.52" height="70" as="geometry" />
        </mxCell>
      </root>
    </mxGraphModel>
  </diagram>
</mxfile>
